<?xml version="1.0" encoding="iso-8859-1"?>
<!-- Generator: Adobe Illustrator 19.0.0, SVG Export Plug-In . SVG Version: 6.00 Build 0)  -->
<svg version="1.1" id="Capa_1" xmlns="http://www.w3.org/2000/svg" xmlns:xlink="http://www.w3.org/1999/xlink" x="0px" y="0px"
	 viewBox="0 0 512 512" style="enable-background:new 0 0 512 512;" xml:space="preserve">
<g>
	<g>
		<path d="M216.116,435.885c-1.86-1.859-4.43-2.929-7.068-2.929c-2.629,0-5.209,1.069-7.068,2.929
			c-1.859,1.86-2.929,4.439-2.929,7.068s1.07,5.209,2.929,7.067c1.86,1.859,4.439,2.93,7.068,2.93
			c2.638-0.001,5.209-1.071,7.068-2.93c1.87-1.859,2.938-4.438,2.938-7.067S217.985,437.745,216.116,435.885z"/>
	</g>
</g>
<g>
	<g>
		<path d="M350.22,363.545c-5.521,0-9.997,4.476-9.997,9.997c0,16.28-13.245,29.525-29.524,29.525c-5.521,0-9.997,4.477-9.997,9.997
			s4.477,9.997,9.997,9.997c27.306,0,49.519-22.215,49.519-49.52C360.218,368.022,355.741,363.545,350.22,363.545z"/>
	</g>
</g>
<g>
	<g>
		<path d="M502.003,491.94H10.128c-5.521,0-9.997,4.477-9.997,9.997s4.477,9.997,9.997,9.997h491.874
			c5.521,0,9.997-4.477,9.997-9.997S507.523,491.94,502.003,491.94z"/>
	</g>
</g>
<g>
	<g>
		<path d="M502.003,373.97H390.094c0-0.143,0.011-0.284,0.011-0.428c0-43.785-35.622-79.407-79.408-79.407
			c-6.693,0-13.194,0.842-19.407,2.408l-29.31-74.869h35.329c1.704,0,3.201,1.089,3.728,2.709c0.537,1.654-0.118,2.913-0.557,3.516
			c-0.438,0.604-1.434,1.617-3.172,1.617h-9.235c-5.521,0-9.997,4.476-9.997,9.997c0,5.522,4.477,9.997,9.997,9.997h9.235
			c7.745,0,14.798-3.594,19.349-9.86c4.552-6.266,5.789-14.083,3.394-21.449c-3.212-9.882-12.352-16.523-22.743-16.523h-49.978
			c-3.305,0-6.394,1.633-8.258,4.362s-2.256,6.203-1.052,9.28l16.453,42.026h-73.038l-6.53-14.937l-2.569-6.548
			c-1.502-3.828-5.194-6.345-9.307-6.345h-39.283c-7.914,0-15.3,3.904-19.759,10.442c-4.458,6.538-5.394,14.84-2.502,22.208
			c3.619,9.219,12.356,15.176,22.261,15.176h28.272l-13.269,22.983c-9.457-3.984-19.839-6.19-30.727-6.19
			c-43.786,0-79.408,35.622-79.408,79.407c0,23.622,10.379,44.855,26.803,59.413H9.997c-5.521,0-9.997,4.477-9.997,9.997
			s4.477,9.997,9.997,9.997h98.025c40.398,0,73.821-30.33,78.756-69.41h34.544c3.373,0,6.519-1.702,8.366-4.524
			c1.032-1.578,1.563-3.387,1.61-5.217c0.075,23.518,10.432,44.651,26.796,59.156h-16.806c-5.521,0-9.997,4.477-9.997,9.997
			s4.477,9.997,9.997,9.997h69.409c36.726,0,67.696-25.066,76.732-58.985h114.573c5.521,0,9.997-4.477,9.997-9.997
			S507.523,373.97,502.003,373.97z M123.746,257.348c-1.624,0.001-3.055-0.975-3.648-2.485c-0.658-1.678-0.025-2.999,0.411-3.639
			c0.436-0.64,1.436-1.712,3.237-1.712h32.467l3.075,7.836H123.746z M108.022,432.955c-32.761,0-59.413-26.652-59.413-59.413
			c0-32.76,26.652-59.412,59.413-59.412c7.248,0,14.195,1.31,20.623,3.696l-29.281,50.718c-1.786,3.093-1.786,6.904,0,9.997
			c1.786,3.093,5.087,4.999,8.658,4.999h27.779c-4.106,11.374-15.007,19.528-27.779,19.528c-5.521,0-9.997,4.477-9.997,9.997
			s4.477,9.997,9.997,9.997c23.882,0,43.868-16.994,48.505-39.523h10.049C161.808,411.554,137.374,432.955,108.022,432.955z
			 M125.338,363.545l20.609-35.696c10.683,8.881,18.201,21.432,20.63,35.696H125.338z M186.778,363.545
			c-2.731-21.632-14.184-40.579-30.732-53.186L171.264,284l34.776,79.546H186.778z M230.483,369.538l-40.306-92.194h72.125
			l10.376,26.506c-24.508,13.424-41.197,39.396-41.374,69.213C231.247,371.864,230.978,370.669,230.483,369.538z M310.698,432.955
			c-32.76,0-59.412-26.652-59.412-59.413c0-21.552,11.538-40.459,28.76-50.874l21.343,54.518c1.544,3.944,5.317,6.355,9.312,6.355
			c1.212,0,2.444-0.223,3.642-0.691c5.142-2.012,7.678-7.812,5.665-12.954l-21.351-54.538c3.89-0.804,7.917-1.229,12.042-1.229
			c32.761,0,59.413,26.652,59.413,59.412C370.11,406.303,343.458,432.955,310.698,432.955z"/>
	</g>
</g>
<g>
	<g>
		<path d="M502.003,432.955h-35.509c-5.521,0-9.997,4.477-9.997,9.997c0,5.521,4.477,9.997,9.997,9.997h35.509
			c5.521,0,9.997-4.477,9.997-9.997C512,437.432,507.523,432.955,502.003,432.955z"/>
	</g>
</g>
<g>
	<g>
		<path d="M419.541,432.955h-35.509c-5.521,0-9.997,4.477-9.997,9.997c0,5.521,4.477,9.997,9.997,9.997h35.509
			c5.521,0,9.997-4.477,9.997-9.997C429.538,437.432,425.061,432.955,419.541,432.955z"/>
	</g>
</g>
<g>
	<g>
		<path d="M416.231,52.012c-24.164,0-43.823,19.659-43.823,43.823c0,24.164,19.659,43.823,43.823,43.823
			s43.823-19.659,43.823-43.823S440.394,52.012,416.231,52.012z M416.231,119.663c-13.14,0-23.828-10.689-23.828-23.828
			c0-13.139,10.688-23.828,23.828-23.828s23.828,10.689,23.828,23.828C440.058,108.975,429.37,119.663,416.231,119.663z"/>
	</g>
</g>
<g>
	<g>
		<path d="M502.003,85.838h-15.494c-5.522,0-9.997,4.476-9.997,9.997s4.477,9.997,9.997,9.997h15.494
			c5.521,0,9.997-4.476,9.997-9.997S507.523,85.838,502.003,85.838z"/>
	</g>
</g>
<g>
	<g>
		<path d="M345.953,85.838h-15.494c-5.521,0-9.997,4.476-9.997,9.997s4.476,9.997,9.997,9.997h15.494
			c5.521,0,9.997-4.476,9.997-9.997S351.474,85.838,345.953,85.838z"/>
	</g>
</g>
<g>
	<g>
		<path d="M416.231,156.115c-5.521,0-9.997,4.476-9.997,9.997v15.495c0,5.522,4.477,9.997,9.997,9.997s9.997-4.476,9.997-9.997
			v-15.495C426.228,160.59,421.751,156.115,416.231,156.115z"/>
	</g>
</g>
<g>
	<g>
		<path d="M416.231,0.065c-5.521,0-9.997,4.476-9.997,9.997v15.494c0,5.522,4.476,9.997,9.997,9.997
			c5.521,0,9.997-4.476,9.997-9.997V10.063C426.228,4.541,421.751,0.065,416.231,0.065z"/>
	</g>
</g>
<g>
	<g>
		<path d="M483.949,149.415l-10.955-10.956c-3.905-3.904-10.233-3.904-14.139,0c-3.904,3.904-3.904,10.234,0,14.139l10.956,10.956
			c1.953,1.953,4.511,2.928,7.069,2.928c2.558,0,5.117-0.976,7.069-2.928C487.853,159.651,487.853,153.32,483.949,149.415z"/>
	</g>
</g>
<g>
	<g>
		<path d="M373.606,39.071L362.65,28.115c-3.905-3.904-10.233-3.904-14.139,0c-3.904,3.904-3.904,10.234,0,14.139l10.957,10.956
			c1.953,1.953,4.511,2.928,7.069,2.928s5.117-0.976,7.069-2.928C377.51,49.307,377.51,42.977,373.606,39.071z"/>
	</g>
</g>
<g>
	<g>
		<path d="M373.606,138.459c-3.905-3.904-10.233-3.904-14.138,0l-10.956,10.956c-3.904,3.904-3.904,10.234,0,14.139
			c1.953,1.953,4.511,2.928,7.069,2.928s5.117-0.976,7.069-2.928l10.956-10.956C377.51,148.694,377.51,142.364,373.606,138.459z"/>
	</g>
</g>
<g>
	<g>
		<path d="M483.95,28.115c-3.905-3.904-10.233-3.904-14.139,0l-10.956,10.956c-3.904,3.904-3.904,10.234,0,14.139
			c1.953,1.953,4.511,2.928,7.07,2.928s5.117-0.976,7.069-2.928l10.956-10.956C487.854,38.351,487.854,32.02,483.95,28.115z"/>
	</g>
</g>
<g>
	<g>
		<path d="M243.916,48.754c-10.425-19.812-31.277-32.693-53.945-32.693c-22.666,0-43.518,12.881-53.944,32.693
			c-25.002,0.894-45.65,19.259-50.205,43.288H10.128c-5.521,0-9.997,4.476-9.997,9.997c0,5.522,4.476,9.997,9.997,9.997h84.753
			c5.521,0,9.997-4.476,9.997-9.997c0-18.375,14.83-33.324,33.058-33.324c1.09,0,2.244,0.061,3.433,0.181
			c4.503,0.458,8.74-2.167,10.347-6.393c6.017-15.818,21.39-26.446,38.252-26.446c16.864,0,32.237,10.627,38.253,26.446
			c1.607,4.226,5.845,6.843,10.348,6.393c1.187-0.12,2.34-0.181,3.43-0.181c14.776,0,27.319,9.82,31.542,23.327h-81.606
			c-5.521,0-9.997,4.476-9.997,9.997c0,5.522,4.477,9.997,9.997,9.997h93.122c5.521,0,9.997-4.476,9.997-9.997
			C295.057,73.283,272.287,49.771,243.916,48.754z"/>
	</g>
</g>
<g>
	<g>
		<path d="M144.906,92.042h-0.146c-5.521,0-9.997,4.476-9.997,9.997c0,5.522,4.477,9.997,9.997,9.997h0.146
			c5.521,0,9.997-4.476,9.997-9.997C154.903,96.518,150.427,92.042,144.906,92.042z"/>
	</g>
</g>
<g>
	<g>
		<path d="M158.555,158.025H48.893c-5.521,0-9.997,4.476-9.997,9.997c0,5.522,4.477,9.997,9.997,9.997h109.662
			c5.521,0,9.997-4.476,9.997-9.997C168.553,162.501,164.076,158.025,158.555,158.025z"/>
	</g>
</g>
<g>
</g>
<g>
</g>
<g>
</g>
<g>
</g>
<g>
</g>
<g>
</g>
<g>
</g>
<g>
</g>
<g>
</g>
<g>
</g>
<g>
</g>
<g>
</g>
<g>
</g>
<g>
</g>
<g>
</g>
</svg>
